<svg xmlns="http://www.w3.org/2000/svg" width="270" height="219.012" viewBox="0 0 270 219.012">
  <g id="Grupo_1102577" data-name="Grupo 1102577" transform="translate(-684.051 -2211.813)">
    <path id="Trazado_881592" data-name="Trazado 881592" d="M7.547,10H3.328v3.25H8.344V15h-7.3V3.625H8.328V5.383h-5V8.242H7.547Zm4.688-3.453v8.766a3.147,3.147,0,0,1-.789,2.293,2.926,2.926,0,0,1-2.2.809,4.377,4.377,0,0,1-1.117-.133l.109-1.742a2.918,2.918,0,0,0,.359.07,2.963,2.963,0,0,0,.383.023.845.845,0,0,0,.711-.324,1.625,1.625,0,0,0,.25-1V6.547Zm-.047-2.039H9.9v-1.7h2.289ZM17.68,15.164A3.8,3.8,0,0,1,14.727,14a4.252,4.252,0,0,1-1.062-2.988V10.7A4.628,4.628,0,0,1,14.7,7.594a3.506,3.506,0,0,1,2.836-1.2,3.282,3.282,0,0,1,2.613,1.043,4.122,4.122,0,0,1,.91,2.809v1.18H16.016l-.023.047a2.284,2.284,0,0,0,.527,1.406,1.766,1.766,0,0,0,1.4.539,4.692,4.692,0,0,0,1.3-.156,5.307,5.307,0,0,0,1.105-.477l.617,1.406a4.234,4.234,0,0,1-1.375.7A6.1,6.1,0,0,1,17.68,15.164Zm-.148-7.016a1.267,1.267,0,0,0-1.059.473,2.371,2.371,0,0,0-.449,1.254l.016.039H18.82V9.742a1.974,1.974,0,0,0-.3-1.168A1.127,1.127,0,0,0,17.531,8.148Zm6.969-1.6.094,1.117a2.84,2.84,0,0,1,1.02-.941,2.932,2.932,0,0,1,1.418-.332,2.582,2.582,0,0,1,1.391.359A2.217,2.217,0,0,1,29.3,7.836a2.93,2.93,0,0,1,1.016-1.062,2.756,2.756,0,0,1,1.469-.383,2.408,2.408,0,0,1,1.973.887,4.233,4.233,0,0,1,.723,2.707V15H32.2V9.977a2.369,2.369,0,0,0-.312-1.414,1.109,1.109,0,0,0-.93-.4,1.592,1.592,0,0,0-.84.215,1.565,1.565,0,0,0-.566.6q0,.148.008.254t.008.215V15H27.289V9.977a2.376,2.376,0,0,0-.312-1.4,1.1,1.1,0,0,0-.937-.41,1.769,1.769,0,0,0-.809.176,1.551,1.551,0,0,0-.574.5V15H22.383V6.547Zm19.352,4.461a4.855,4.855,0,0,1-.867,3.016,2.869,2.869,0,0,1-2.422,1.141,2.707,2.707,0,0,1-1.18-.246A2.423,2.423,0,0,1,38.5,14.2V18.25H36.227V6.547h2.055l.133,1a2.709,2.709,0,0,1,.9-.855,2.441,2.441,0,0,1,1.23-.3,2.813,2.813,0,0,1,2.438,1.227,5.474,5.474,0,0,1,.867,3.227Zm-2.281-.164a4.09,4.09,0,0,0-.4-1.937,1.3,1.3,0,0,0-1.219-.742,1.722,1.722,0,0,0-.879.211,1.505,1.505,0,0,0-.574.6v3.7a1.4,1.4,0,0,0,.574.547,1.935,1.935,0,0,0,.895.188,1.312,1.312,0,0,0,1.215-.648,3.423,3.423,0,0,0,.387-1.758ZM47.656,15H45.375V2.813h2.281Zm1.523-4.3a4.536,4.536,0,0,1,1.055-3.1,3.676,3.676,0,0,1,2.922-1.207,3.715,3.715,0,0,1,2.938,1.2,4.512,4.512,0,0,1,1.063,3.1v.164A4.519,4.519,0,0,1,56.1,13.965a4.178,4.178,0,0,1-5.859,0,4.519,4.519,0,0,1-1.059-3.105Zm2.273.164a3.677,3.677,0,0,0,.406,1.855,1.561,1.561,0,0,0,2.605,0,3.653,3.653,0,0,0,.41-1.852V10.7a3.616,3.616,0,0,0-.414-1.836,1.4,1.4,0,0,0-1.3-.711,1.384,1.384,0,0,0-1.293.715,3.648,3.648,0,0,0-.41,1.832ZM61.094,15H58.813V13h2.281Zm0-6.844H58.813v-2h2.281ZM76.281,3.625V11.07a3.741,3.741,0,0,1-1.273,3.008,4.916,4.916,0,0,1-3.3,1.086,4.858,4.858,0,0,1-3.285-1.086,3.757,3.757,0,0,1-1.262-3.008V3.625h2.289V11.07a2.341,2.341,0,0,0,.609,1.742,2.244,2.244,0,0,0,1.648.6,2.293,2.293,0,0,0,1.672-.6,2.324,2.324,0,0,0,.617-1.742V3.625Zm6.375,9.031a.787.787,0,0,0-.363-.645,3.69,3.69,0,0,0-1.348-.473,5.375,5.375,0,0,1-2.254-.9,1.962,1.962,0,0,1-.77-1.633,2.329,2.329,0,0,1,.922-1.852A3.717,3.717,0,0,1,81.3,6.391a4.011,4.011,0,0,1,2.566.766,2.237,2.237,0,0,1,.926,1.906l-.016.047h-2.2a1.106,1.106,0,0,0-.328-.828,1.534,1.534,0,0,0-1.812-.047.85.85,0,0,0-.32.672.759.759,0,0,0,.332.637,3.7,3.7,0,0,0,1.348.441,5.484,5.484,0,0,1,2.316.918,2.014,2.014,0,0,1,.762,1.668,2.231,2.231,0,0,1-.977,1.867,4.215,4.215,0,0,1-2.578.727,3.918,3.918,0,0,1-2.668-.855,2.392,2.392,0,0,1-.934-1.949l.016-.047h2.086a1.186,1.186,0,0,0,.445.984,1.838,1.838,0,0,0,1.1.3,1.567,1.567,0,0,0,.965-.254A.824.824,0,0,0,82.656,12.656Zm8.859,1.094a2.87,2.87,0,0,1-.992,1.047,2.63,2.63,0,0,1-1.4.367,2.57,2.57,0,0,1-2.09-.906,4.347,4.347,0,0,1-.754-2.812v-4.9h2.273v4.914a2.729,2.729,0,0,0,.3,1.52,1.081,1.081,0,0,0,.934.41,2.273,2.273,0,0,0,.938-.176,1.58,1.58,0,0,0,.641-.52V6.547h2.281V15H91.758ZM100.352,15a4.8,4.8,0,0,1-.215-.609,4.238,4.238,0,0,1-.129-.656,3.127,3.127,0,0,1-.93,1.023,2.33,2.33,0,0,1-1.375.406,2.855,2.855,0,0,1-2.047-.684,2.449,2.449,0,0,1-.719-1.863,2.229,2.229,0,0,1,.957-1.926,4.78,4.78,0,0,1,2.793-.684h1.281V9.336a1.315,1.315,0,0,0-.32-.945,1.257,1.257,0,0,0-.953-.336,1.239,1.239,0,0,0-.855.27.941.941,0,0,0-.3.738h-2.2l-.016-.047a2.144,2.144,0,0,1,.934-1.848,4.055,4.055,0,0,1,2.582-.777,3.784,3.784,0,0,1,2.465.766,2.667,2.667,0,0,1,.941,2.2v3.492a6.6,6.6,0,0,0,.09,1.117A5.606,5.606,0,0,0,102.625,15Zm-2.086-1.523a1.944,1.944,0,0,0,1.063-.3,1.6,1.6,0,0,0,.641-.687V11.3H98.688a1.519,1.519,0,0,0-1.1.359,1.181,1.181,0,0,0-.371.883.881.881,0,0,0,.277.684A1.1,1.1,0,0,0,98.266,13.477Zm10.141-4.969-.836-.023a1.519,1.519,0,0,0-.836.211,1.337,1.337,0,0,0-.5.594V15h-2.273V6.547h2.117l.1,1.25a2.667,2.667,0,0,1,.77-1.035,1.8,1.8,0,0,1,1.406-.344q.145.027.293.066ZM111.992,15h-2.281V6.547h2.281Zm0-10.477h-2.281V2.813h2.281Zm1.523,6.172a4.536,4.536,0,0,1,1.055-3.1,3.676,3.676,0,0,1,2.922-1.207,3.715,3.715,0,0,1,2.938,1.2,4.512,4.512,0,0,1,1.063,3.1v.164a4.519,4.519,0,0,1-1.059,3.105,4.178,4.178,0,0,1-5.859,0,4.519,4.519,0,0,1-1.059-3.105Zm2.273.164a3.677,3.677,0,0,0,.406,1.855,1.561,1.561,0,0,0,2.605,0,3.653,3.653,0,0,0,.41-1.852V10.7a3.616,3.616,0,0,0-.414-1.836,1.4,1.4,0,0,0-1.3-.711,1.384,1.384,0,0,0-1.293.715,3.648,3.648,0,0,0-.41,1.832Zm15.961.156h-4.6V9.258h4.6Zm12.523-.141V15h-2.281V3.625h4.352a4.48,4.48,0,0,1,3.086,1,3.353,3.353,0,0,1,1.125,2.633,3.329,3.329,0,0,1-1.125,2.625,4.5,4.5,0,0,1-3.086.992Zm0-1.758h2.07a1.9,1.9,0,0,0,1.445-.52,1.848,1.848,0,0,0,.492-1.324,1.934,1.934,0,0,0-.488-1.355,1.864,1.864,0,0,0-1.449-.535h-2.07Zm11.3,6.047A3.8,3.8,0,0,1,152.625,14a4.252,4.252,0,0,1-1.062-2.988V10.7a4.628,4.628,0,0,1,1.031-3.109,3.506,3.506,0,0,1,2.836-1.2,3.282,3.282,0,0,1,2.613,1.043,4.122,4.122,0,0,1,.91,2.809v1.18h-5.039l-.023.047a2.284,2.284,0,0,0,.527,1.406,1.766,1.766,0,0,0,1.4.539,4.692,4.692,0,0,0,1.3-.156,5.307,5.307,0,0,0,1.105-.477l.617,1.406a4.234,4.234,0,0,1-1.375.7A6.1,6.1,0,0,1,155.578,15.164Zm-.148-7.016a1.267,1.267,0,0,0-1.059.473,2.371,2.371,0,0,0-.449,1.254l.016.039h2.781V9.742a1.974,1.974,0,0,0-.3-1.168A1.127,1.127,0,0,0,155.43,8.148Zm4.5,2.7a5.493,5.493,0,0,1,.863-3.227,2.8,2.8,0,0,1,2.434-1.227,2.367,2.367,0,0,1,1.141.273,2.744,2.744,0,0,1,.891.781V2.813h2.289V15H165.6l-.2-1.039a2.826,2.826,0,0,1-.945.895,2.5,2.5,0,0,1-1.25.309,2.858,2.858,0,0,1-2.418-1.141,4.871,4.871,0,0,1-.863-3.016Zm2.273.164a3.443,3.443,0,0,0,.375,1.746,1.306,1.306,0,0,0,1.219.637,1.775,1.775,0,0,0,.859-.2,1.589,1.589,0,0,0,.6-.582v-3.6a1.756,1.756,0,0,0-.6-.621,1.589,1.589,0,0,0-.848-.223,1.287,1.287,0,0,0-1.223.742,4.194,4.194,0,0,0-.387,1.938ZM171.711,15H169.43V6.547h2.281Zm0-10.477H169.43V2.813h2.281Zm1.523,6.32a5.493,5.493,0,0,1,.863-3.227,2.8,2.8,0,0,1,2.434-1.227,2.367,2.367,0,0,1,1.141.273,2.744,2.744,0,0,1,.891.781V2.813h2.289V15h-1.945l-.2-1.039a2.826,2.826,0,0,1-.945.895,2.5,2.5,0,0,1-1.25.309,2.858,2.858,0,0,1-2.418-1.141,4.871,4.871,0,0,1-.863-3.016Zm2.273.164a3.443,3.443,0,0,0,.375,1.746,1.306,1.306,0,0,0,1.219.637,1.775,1.775,0,0,0,.859-.2,1.589,1.589,0,0,0,.6-.582v-3.6a1.756,1.756,0,0,0-.6-.621,1.589,1.589,0,0,0-.848-.223,1.287,1.287,0,0,0-1.223.742,4.194,4.194,0,0,0-.387,1.938Zm6.758-.312a4.536,4.536,0,0,1,1.055-3.1,3.676,3.676,0,0,1,2.922-1.207,3.715,3.715,0,0,1,2.938,1.2,4.512,4.512,0,0,1,1.063,3.1v.164a4.519,4.519,0,0,1-1.059,3.105,4.178,4.178,0,0,1-5.859,0,4.519,4.519,0,0,1-1.059-3.105Zm2.273.164a3.677,3.677,0,0,0,.406,1.855,1.561,1.561,0,0,0,2.605,0,3.653,3.653,0,0,0,.41-1.852V10.7a3.616,3.616,0,0,0-.414-1.836,1.4,1.4,0,0,0-1.3-.711,1.384,1.384,0,0,0-1.293.715,3.648,3.648,0,0,0-.41,1.832Zm11.68,1.8a.787.787,0,0,0-.363-.645,3.69,3.69,0,0,0-1.348-.473,5.375,5.375,0,0,1-2.254-.9,1.962,1.962,0,0,1-.77-1.633,2.329,2.329,0,0,1,.922-1.852,3.717,3.717,0,0,1,2.453-.766,4.011,4.011,0,0,1,2.566.766,2.237,2.237,0,0,1,.926,1.906l-.016.047h-2.2a1.106,1.106,0,0,0-.328-.828,1.534,1.534,0,0,0-1.812-.047.85.85,0,0,0-.32.672.759.759,0,0,0,.332.637,3.7,3.7,0,0,0,1.348.441,5.484,5.484,0,0,1,2.316.918,2.014,2.014,0,0,1,.762,1.668,2.231,2.231,0,0,1-.977,1.867,4.215,4.215,0,0,1-2.578.727,3.918,3.918,0,0,1-2.668-.855,2.392,2.392,0,0,1-.934-1.949l.016-.047h2.086a1.186,1.186,0,0,0,.445.984,1.838,1.838,0,0,0,1.1.3,1.567,1.567,0,0,0,.965-.254A.824.824,0,0,0,196.219,12.656Z" transform="translate(705.051 2209)" fill="#12263f"/>
    <path id="Trazado_881593" data-name="Trazado 881593" d="M0,0H87V109H0Z" transform="translate(684.051 2279.824)" fill="#cff8de"/>
    <path id="Trazado_881594" data-name="Trazado 881594" d="M16.313,3.625V11.18a3.669,3.669,0,0,1-1.219,2.93,4.627,4.627,0,0,1-3.141,1.055,4.367,4.367,0,0,1-3.031-1.059,3.73,3.73,0,0,1-1.18-2.926V3.625H9.281V11.18a2.744,2.744,0,0,0,.746,2.043,2.621,2.621,0,0,0,1.926.738,2.851,2.851,0,0,0,2.035-.738,2.668,2.668,0,0,0,.785-2.043V3.625Zm7.141,9.1a1.026,1.026,0,0,0-.387-.828,3.732,3.732,0,0,0-1.465-.562,6.146,6.146,0,0,1-2.293-.9,1.814,1.814,0,0,1-.8-1.547,2.229,2.229,0,0,1,.879-1.766,3.433,3.433,0,0,1,2.277-.734,3.4,3.4,0,0,1,2.328.781,2.239,2.239,0,0,1,.852,1.82l-.016.047H23.359a1.331,1.331,0,0,0-.48-.992A1.717,1.717,0,0,0,21.664,7.6a1.751,1.751,0,0,0-1.215.367,1.146,1.146,0,0,0-.4.875.927.927,0,0,0,.348.773,3.848,3.848,0,0,0,1.434.5,6.058,6.058,0,0,1,2.359.93,1.872,1.872,0,0,1,.8,1.57,2.226,2.226,0,0,1-.91,1.836,3.754,3.754,0,0,1-2.379.711,3.715,3.715,0,0,1-2.547-.82,2.341,2.341,0,0,1-.883-1.914l.016-.047h1.469a1.424,1.424,0,0,0,.609,1.2,2.358,2.358,0,0,0,1.336.379,2.1,2.1,0,0,0,1.285-.348A1.063,1.063,0,0,0,23.453,12.727Zm8.82,1.023A2.863,2.863,0,0,1,31.25,14.8a2.8,2.8,0,0,1-1.445.367,2.716,2.716,0,0,1-2.156-.883,4.1,4.1,0,0,1-.773-2.75V6.547h1.539v5a3.147,3.147,0,0,0,.4,1.859,1.481,1.481,0,0,0,1.242.508,2.531,2.531,0,0,0,1.355-.332,2.077,2.077,0,0,0,.809-.941V6.547h1.539V15H32.375ZM41.2,15q-.078-.383-.121-.676a4.96,4.96,0,0,1-.051-.59,3.589,3.589,0,0,1-1.121,1.02,2.867,2.867,0,0,1-1.488.41,2.763,2.763,0,0,1-2.012-.676,2.486,2.486,0,0,1-.691-1.863,2.183,2.183,0,0,1,.98-1.895,4.579,4.579,0,0,1,2.66-.684h1.672V9.211a1.551,1.551,0,0,0-.453-1.176A1.779,1.779,0,0,0,39.289,7.6a1.859,1.859,0,0,0-1.211.375,1.125,1.125,0,0,0-.461.9l-1.461.016-.016-.047A2.023,2.023,0,0,1,37,7.156a3.578,3.578,0,0,1,2.371-.766,3.49,3.49,0,0,1,2.313.73,2.588,2.588,0,0,1,.875,2.105V13.3a7.923,7.923,0,0,0,.047.875,4.5,4.5,0,0,0,.172.828Zm-2.555-1.125a2.739,2.739,0,0,0,1.508-.43,2.042,2.042,0,0,0,.875-.984V11.086H39.3a2.24,2.24,0,0,0-1.488.469,1.4,1.4,0,0,0-.559,1.1,1.159,1.159,0,0,0,.352.891A1.472,1.472,0,0,0,38.641,13.875ZM48.8,7.906l-.789-.047a1.762,1.762,0,0,0-1.027.289,1.855,1.855,0,0,0-.645.813V15H44.8V6.547h1.375l.148,1.234a2.934,2.934,0,0,1,.887-1.023,2.073,2.073,0,0,1,1.215-.367,1.9,1.9,0,0,1,.328.027,2.174,2.174,0,0,1,.258.059ZM52.063,15H50.523V6.547h1.539Zm0-10.617H50.523V2.813h1.539ZM54.07,10.7a4.654,4.654,0,0,1,1.016-3.09,3.764,3.764,0,0,1,5.535,0,4.639,4.639,0,0,1,1.02,3.094v.172a4.631,4.631,0,0,1-1.016,3.094,3.781,3.781,0,0,1-5.535,0,4.623,4.623,0,0,1-1.02-3.09Zm1.539.172a4.009,4.009,0,0,0,.566,2.219,2.046,2.046,0,0,0,3.355,0,3.988,3.988,0,0,0,.57-2.219V10.7a3.976,3.976,0,0,0-.574-2.211A1.882,1.882,0,0,0,57.844,7.6a1.856,1.856,0,0,0-1.668.883,4.018,4.018,0,0,0-.566,2.211ZM21.738,39H20.191V27.625h1.547Zm2.82,0V27.625h3.578a4.678,4.678,0,0,1,4.938,4.914v1.555A4.667,4.667,0,0,1,28.137,39ZM26.1,28.836V37.8h2.039a3.137,3.137,0,0,0,2.488-1.039,3.9,3.9,0,0,0,.91-2.664v-1.57a3.873,3.873,0,0,0-.91-2.648,3.137,3.137,0,0,0-2.488-1.039ZM36.066,39H34.527V37.422h1.539Zm0-6.844H34.527V30.578h1.539ZM46.832,39H45.285V29.047l-2.477.023V27.883l4.023-.422ZM13.777,63H12.238L6.762,54.313l-.047.016V63H5.176V51.625H6.715l5.477,8.68.047-.016V51.625h1.539Zm2.094-4.3a4.654,4.654,0,0,1,1.016-3.09,3.406,3.406,0,0,1,2.758-1.215A3.439,3.439,0,0,1,22.422,55.6a4.639,4.639,0,0,1,1.02,3.094v.172a4.631,4.631,0,0,1-1.016,3.094,3.429,3.429,0,0,1-2.766,1.2,3.436,3.436,0,0,1-2.77-1.207,4.623,4.623,0,0,1-1.02-3.09Zm1.539.172a4.009,4.009,0,0,0,.566,2.219,2.046,2.046,0,0,0,3.355,0,3.988,3.988,0,0,0,.57-2.219V58.7a3.976,3.976,0,0,0-.574-2.211,1.882,1.882,0,0,0-1.684-.883,1.856,1.856,0,0,0-1.668.883A4.018,4.018,0,0,0,17.41,58.7Zm9.289-4.32.109,1.109a2.871,2.871,0,0,1,1.051-.934,3.157,3.157,0,0,1,1.48-.332,2.615,2.615,0,0,1,1.449.391,2.363,2.363,0,0,1,.91,1.172,3.162,3.162,0,0,1,1.059-1.145,2.769,2.769,0,0,1,1.527-.418,2.531,2.531,0,0,1,2.039.887,4.051,4.051,0,0,1,.75,2.668V63H35.535V57.93a2.81,2.81,0,0,0-.43-1.77,1.567,1.567,0,0,0-1.281-.52,1.631,1.631,0,0,0-1.277.547,2.381,2.381,0,0,0-.574,1.383V63H30.426V57.93a2.772,2.772,0,0,0-.441-1.738,1.532,1.532,0,0,0-1.27-.551,2.115,2.115,0,0,0-1.156.289,1.867,1.867,0,0,0-.7.813V63H25.324V54.547Zm19.828,4.547a4.645,4.645,0,0,1-.879,2.949,2.9,2.9,0,0,1-2.418,1.121,3.064,3.064,0,0,1-1.465-.332,2.719,2.719,0,0,1-1.027-.98L40.488,63h-1.18V50.813h1.539v4.734a2.671,2.671,0,0,1,.988-.859,3.03,3.03,0,0,1,1.379-.3,2.809,2.809,0,0,1,2.438,1.25,5.622,5.622,0,0,1,.875,3.289Zm-1.539-.164a4.666,4.666,0,0,0-.535-2.371,1.762,1.762,0,0,0-1.629-.918,2.014,2.014,0,0,0-1.2.348,2.452,2.452,0,0,0-.777.934v3.664a2.517,2.517,0,0,0,.777.977,2,2,0,0,0,1.215.352,1.829,1.829,0,0,0,1.617-.773,3.552,3.552,0,0,0,.531-2.047ZM52.4,55.906l-.789-.047a1.762,1.762,0,0,0-1.027.289,1.855,1.855,0,0,0-.645.813V63H48.4V54.547h1.375l.148,1.234a2.934,2.934,0,0,1,.887-1.023,2.073,2.073,0,0,1,1.215-.367,1.9,1.9,0,0,1,.328.027,2.175,2.175,0,0,1,.258.059Zm4.953,7.258A3.576,3.576,0,0,1,54.516,62a4.48,4.48,0,0,1-1.02-3.062v-.344a4.386,4.386,0,0,1,1.051-3.012,3.3,3.3,0,0,1,2.566-1.191,3.067,3.067,0,0,1,2.543,1.055,4.345,4.345,0,0,1,.848,2.8v.813H55.1l-.023.039a3.494,3.494,0,0,0,.563,2.066,1.965,1.965,0,0,0,1.719.793,3.872,3.872,0,0,0,1.371-.223,3.061,3.061,0,0,0,1.012-.613l.6,1a3.7,3.7,0,0,1-1.2.738A4.762,4.762,0,0,1,57.355,63.164ZM57.113,55.6a1.673,1.673,0,0,0-1.332.621,2.938,2.938,0,0,0-.645,1.59l.016.039h3.813v-.125a2.462,2.462,0,0,0-.453-1.523A1.638,1.638,0,0,0,57.113,55.6Zm6.8,7.4H62.371V61.422H63.91Zm0-6.844H62.371V54.578H63.91ZM27.7,84.07H23.418L22.4,87h-1.57l4.1-11.375h1.32L30.27,87H28.7Zm-3.836-1.289h3.4L25.605,77.9h-.047Zm9.242-4.234.109,1.258a3.069,3.069,0,0,1,1.059-1.043,2.824,2.824,0,0,1,1.449-.371,2.759,2.759,0,0,1,2.117.8,3.515,3.515,0,0,1,.75,2.473V87H37.051V81.7a2.287,2.287,0,0,0-.441-1.586,1.768,1.768,0,0,0-1.348-.469,2.386,2.386,0,0,0-1.207.285,2.072,2.072,0,0,0-.785.8V87H31.73V78.547ZM46.02,87q-.078-.383-.121-.676a4.96,4.96,0,0,1-.051-.59,3.589,3.589,0,0,1-1.121,1.02,2.867,2.867,0,0,1-1.488.41,2.763,2.763,0,0,1-2.012-.676,2.486,2.486,0,0,1-.691-1.863,2.183,2.183,0,0,1,.98-1.895,4.579,4.579,0,0,1,2.66-.684h1.672v-.836a1.551,1.551,0,0,0-.453-1.176,1.779,1.779,0,0,0-1.281-.434,1.859,1.859,0,0,0-1.211.375,1.125,1.125,0,0,0-.461.9l-1.461.016-.016-.047a2.023,2.023,0,0,1,.863-1.687,3.578,3.578,0,0,1,2.371-.766,3.49,3.49,0,0,1,2.313.73,2.588,2.588,0,0,1,.875,2.105V85.3a7.923,7.923,0,0,0,.047.875,4.5,4.5,0,0,0,.172.828Zm-2.555-1.125a2.739,2.739,0,0,0,1.508-.43,2.042,2.042,0,0,0,.875-.984V83.086H44.121a2.24,2.24,0,0,0-1.488.469,1.4,1.4,0,0,0-.559,1.1,1.159,1.159,0,0,0,.352.891A1.472,1.472,0,0,0,43.465,85.875Z" transform="translate(693.051 2288.824)" fill="#12263f"/>
    <path id="Trazado_881595" data-name="Trazado 881595" d="M0,0H124V60H0Z" transform="translate(830.051 2236.824)" fill="#ede9ec"/>
    <path id="Trazado_881596" data-name="Trazado 881596" d="M0,0H124V60H0Z" transform="translate(830.051 2303.824)" fill="#ede9ec"/>
    <path id="Trazado_881597" data-name="Trazado 881597" d="M0,0H124V60H0Z" transform="translate(830.051 2370.824)" fill="#ede9ec"/>
    <path id="Trazado_881598" data-name="Trazado 881598" d="M27.5,10.438V15H25.957V3.625h4.352a4.009,4.009,0,0,1,2.832.938,3.207,3.207,0,0,1,1.012,2.469,3.2,3.2,0,0,1-1.012,2.477,4.031,4.031,0,0,1-2.832.93Zm0-1.2h2.813a2.231,2.231,0,0,0,1.727-.621,2.227,2.227,0,0,0,.57-1.566,2.26,2.26,0,0,0-.574-1.578,2.21,2.21,0,0,0-1.723-.633H27.5Zm11.82,5.93A3.576,3.576,0,0,1,36.477,14a4.48,4.48,0,0,1-1.02-3.062v-.344a4.386,4.386,0,0,1,1.051-3.012,3.3,3.3,0,0,1,2.566-1.191,3.067,3.067,0,0,1,2.543,1.055,4.345,4.345,0,0,1,.848,2.8v.813H37.059l-.023.039a3.494,3.494,0,0,0,.563,2.066,1.965,1.965,0,0,0,1.719.793,3.872,3.872,0,0,0,1.371-.223,3.061,3.061,0,0,0,1.012-.613l.6,1a3.7,3.7,0,0,1-1.2.738A4.762,4.762,0,0,1,39.316,15.164ZM39.074,7.6a1.673,1.673,0,0,0-1.332.621,2.938,2.938,0,0,0-.645,1.59l.016.039h3.813V9.727A2.462,2.462,0,0,0,40.473,8.2,1.638,1.638,0,0,0,39.074,7.6ZM43.84,10.93a5.641,5.641,0,0,1,.871-3.289,2.807,2.807,0,0,1,2.441-1.25,3.027,3.027,0,0,1,1.316.273,2.7,2.7,0,0,1,.98.8V2.813h1.539V15h-1.18l-.234-1.07a2.743,2.743,0,0,1-1.023.922,3.058,3.058,0,0,1-1.414.313,2.9,2.9,0,0,1-2.422-1.121,4.659,4.659,0,0,1-.875-2.949Zm1.539.164a3.588,3.588,0,0,0,.523,2.051,1.828,1.828,0,0,0,1.625.77,2.039,2.039,0,0,0,1.156-.312,2.334,2.334,0,0,0,.766-.875V8.781a2.37,2.37,0,0,0-.77-.832,2.033,2.033,0,0,0-1.137-.309,1.759,1.759,0,0,0-1.637.914,4.718,4.718,0,0,0-.527,2.375ZM54.949,15H53.41V6.547h1.539Zm0-10.617H53.41V2.813h1.539Zm2.016,6.547a5.641,5.641,0,0,1,.871-3.289,2.807,2.807,0,0,1,2.441-1.25,3.027,3.027,0,0,1,1.316.273,2.7,2.7,0,0,1,.98.8V2.813h1.539V15h-1.18L62.7,13.93a2.743,2.743,0,0,1-1.023.922,3.058,3.058,0,0,1-1.414.313,2.9,2.9,0,0,1-2.422-1.121,4.659,4.659,0,0,1-.875-2.949Zm1.539.164a3.588,3.588,0,0,0,.523,2.051,1.828,1.828,0,0,0,1.625.77,2.039,2.039,0,0,0,1.156-.312,2.334,2.334,0,0,0,.766-.875V8.781a2.37,2.37,0,0,0-.77-.832,2.033,2.033,0,0,0-1.137-.309,1.759,1.759,0,0,0-1.637.914A4.718,4.718,0,0,0,58.5,10.93Zm7.547-.4a4.654,4.654,0,0,1,1.016-3.09,3.764,3.764,0,0,1,5.535,0,4.639,4.639,0,0,1,1.02,3.094v.172a4.631,4.631,0,0,1-1.016,3.094,3.781,3.781,0,0,1-5.535,0,4.623,4.623,0,0,1-1.02-3.09Zm1.539.172a4.009,4.009,0,0,0,.566,2.219,2.046,2.046,0,0,0,3.355,0,3.988,3.988,0,0,0,.57-2.219V10.7a3.976,3.976,0,0,0-.574-2.211A1.882,1.882,0,0,0,69.824,7.6a1.856,1.856,0,0,0-1.668.883A4.018,4.018,0,0,0,67.59,10.7ZM83.91,15H82.363V5.047l-2.477.023V3.883l4.023-.422ZM11.3,39H9.75V27.625H11.3Zm2.82,0V27.625H17.7a4.678,4.678,0,0,1,4.938,4.914v1.555A4.667,4.667,0,0,1,17.7,39Zm1.539-10.164V37.8H17.7a3.137,3.137,0,0,0,2.488-1.039,3.9,3.9,0,0,0,.91-2.664v-1.57a3.873,3.873,0,0,0-.91-2.648A3.137,3.137,0,0,0,17.7,28.836ZM30.867,40.2H23.656V39h7.211Zm9.75-12.578V35.18a3.669,3.669,0,0,1-1.219,2.93,4.627,4.627,0,0,1-3.141,1.055,4.367,4.367,0,0,1-3.031-1.059,3.73,3.73,0,0,1-1.18-2.926V27.625h1.539V35.18a2.744,2.744,0,0,0,.746,2.043,2.621,2.621,0,0,0,1.926.738,2.851,2.851,0,0,0,2.035-.738,2.668,2.668,0,0,0,.785-2.043V27.625Zm7.141,9.1a1.026,1.026,0,0,0-.387-.828,3.732,3.732,0,0,0-1.465-.562,6.146,6.146,0,0,1-2.293-.9,1.814,1.814,0,0,1-.8-1.547,2.229,2.229,0,0,1,.879-1.766,3.879,3.879,0,0,1,4.605.047,2.239,2.239,0,0,1,.852,1.82l-.016.047H47.664a1.331,1.331,0,0,0-.48-.992,1.717,1.717,0,0,0-1.215-.445,1.751,1.751,0,0,0-1.215.367,1.146,1.146,0,0,0-.4.875.927.927,0,0,0,.348.773,3.848,3.848,0,0,0,1.434.5,6.058,6.058,0,0,1,2.359.93,1.872,1.872,0,0,1,.8,1.57,2.226,2.226,0,0,1-.91,1.836,3.754,3.754,0,0,1-2.379.711,3.715,3.715,0,0,1-2.547-.82,2.341,2.341,0,0,1-.883-1.914l.016-.047h1.469a1.424,1.424,0,0,0,.609,1.2,2.358,2.358,0,0,0,1.336.379,2.1,2.1,0,0,0,1.285-.348A1.063,1.063,0,0,0,47.758,36.727Zm8.82,1.023A2.863,2.863,0,0,1,55.555,38.8a2.8,2.8,0,0,1-1.445.367,2.716,2.716,0,0,1-2.156-.883,4.1,4.1,0,0,1-.773-2.75V30.547h1.539v5a3.147,3.147,0,0,0,.4,1.859,1.481,1.481,0,0,0,1.242.508,2.531,2.531,0,0,0,1.355-.332,2.077,2.077,0,0,0,.809-.941V30.547h1.539V39H56.68ZM65.5,39q-.078-.383-.121-.676a4.96,4.96,0,0,1-.051-.59,3.589,3.589,0,0,1-1.121,1.02,2.867,2.867,0,0,1-1.488.41,2.763,2.763,0,0,1-2.012-.676,2.486,2.486,0,0,1-.691-1.863A2.183,2.183,0,0,1,61,34.73a4.579,4.579,0,0,1,2.66-.684h1.672v-.836a1.551,1.551,0,0,0-.453-1.176,1.779,1.779,0,0,0-1.281-.434,1.859,1.859,0,0,0-1.211.375,1.125,1.125,0,0,0-.461.9l-1.461.016-.016-.047a2.023,2.023,0,0,1,.863-1.687,3.578,3.578,0,0,1,2.371-.766,3.49,3.49,0,0,1,2.313.73,2.588,2.588,0,0,1,.875,2.105V37.3a7.923,7.923,0,0,0,.047.875,4.5,4.5,0,0,0,.172.828Zm-2.555-1.125a2.739,2.739,0,0,0,1.508-.43,2.042,2.042,0,0,0,.875-.984V35.086H63.6a2.24,2.24,0,0,0-1.488.469,1.4,1.4,0,0,0-.559,1.1,1.159,1.159,0,0,0,.352.891A1.472,1.472,0,0,0,62.945,37.875ZM73.1,31.906l-.789-.047a1.762,1.762,0,0,0-1.027.289,1.854,1.854,0,0,0-.645.813V39H69.1V30.547h1.375l.148,1.234a2.934,2.934,0,0,1,.887-1.023,2.073,2.073,0,0,1,1.215-.367,1.9,1.9,0,0,1,.328.027,2.175,2.175,0,0,1,.258.059ZM76.367,39H74.828V30.547h1.539Zm0-10.617H74.828v-1.57h1.539ZM78.375,34.7a4.654,4.654,0,0,1,1.016-3.09,3.764,3.764,0,0,1,5.535,0,4.639,4.639,0,0,1,1.02,3.094v.172a4.631,4.631,0,0,1-1.016,3.094,3.781,3.781,0,0,1-5.535,0,4.623,4.623,0,0,1-1.02-3.09Zm1.539.172a4.009,4.009,0,0,0,.566,2.219,2.046,2.046,0,0,0,3.355,0,3.988,3.988,0,0,0,.57-2.219V34.7a3.976,3.976,0,0,0-.574-2.211,1.882,1.882,0,0,0-1.684-.883,1.856,1.856,0,0,0-1.668.883,4.018,4.018,0,0,0-.566,2.211ZM89.508,39H87.969V37.422h1.539Zm0-6.844H87.969V30.578h1.539ZM100.273,39H98.727V29.047l-2.477.023V27.883l4.023-.422Z" transform="translate(836.051 2245.824)" fill="#12263f"/>
    <path id="Trazado_881599" data-name="Trazado 881599" d="M27.5,10.438V15H25.957V3.625h4.352a4.009,4.009,0,0,1,2.832.938,3.207,3.207,0,0,1,1.012,2.469,3.2,3.2,0,0,1-1.012,2.477,4.031,4.031,0,0,1-2.832.93Zm0-1.2h2.813a2.231,2.231,0,0,0,1.727-.621,2.227,2.227,0,0,0,.57-1.566,2.26,2.26,0,0,0-.574-1.578,2.21,2.21,0,0,0-1.723-.633H27.5Zm11.82,5.93A3.576,3.576,0,0,1,36.477,14a4.48,4.48,0,0,1-1.02-3.062v-.344a4.386,4.386,0,0,1,1.051-3.012,3.3,3.3,0,0,1,2.566-1.191,3.067,3.067,0,0,1,2.543,1.055,4.345,4.345,0,0,1,.848,2.8v.813H37.059l-.023.039a3.494,3.494,0,0,0,.563,2.066,1.965,1.965,0,0,0,1.719.793,3.872,3.872,0,0,0,1.371-.223,3.061,3.061,0,0,0,1.012-.613l.6,1a3.7,3.7,0,0,1-1.2.738A4.762,4.762,0,0,1,39.316,15.164ZM39.074,7.6a1.673,1.673,0,0,0-1.332.621,2.938,2.938,0,0,0-.645,1.59l.016.039h3.813V9.727A2.462,2.462,0,0,0,40.473,8.2,1.638,1.638,0,0,0,39.074,7.6ZM43.84,10.93a5.641,5.641,0,0,1,.871-3.289,2.807,2.807,0,0,1,2.441-1.25,3.027,3.027,0,0,1,1.316.273,2.7,2.7,0,0,1,.98.8V2.813h1.539V15h-1.18l-.234-1.07a2.743,2.743,0,0,1-1.023.922,3.058,3.058,0,0,1-1.414.313,2.9,2.9,0,0,1-2.422-1.121,4.659,4.659,0,0,1-.875-2.949Zm1.539.164a3.588,3.588,0,0,0,.523,2.051,1.828,1.828,0,0,0,1.625.77,2.039,2.039,0,0,0,1.156-.312,2.334,2.334,0,0,0,.766-.875V8.781a2.37,2.37,0,0,0-.77-.832,2.033,2.033,0,0,0-1.137-.309,1.759,1.759,0,0,0-1.637.914,4.718,4.718,0,0,0-.527,2.375ZM54.949,15H53.41V6.547h1.539Zm0-10.617H53.41V2.813h1.539Zm2.016,6.547a5.641,5.641,0,0,1,.871-3.289,2.807,2.807,0,0,1,2.441-1.25,3.027,3.027,0,0,1,1.316.273,2.7,2.7,0,0,1,.98.8V2.813h1.539V15h-1.18L62.7,13.93a2.743,2.743,0,0,1-1.023.922,3.058,3.058,0,0,1-1.414.313,2.9,2.9,0,0,1-2.422-1.121,4.659,4.659,0,0,1-.875-2.949Zm1.539.164a3.588,3.588,0,0,0,.523,2.051,1.828,1.828,0,0,0,1.625.77,2.039,2.039,0,0,0,1.156-.312,2.334,2.334,0,0,0,.766-.875V8.781a2.37,2.37,0,0,0-.77-.832,2.033,2.033,0,0,0-1.137-.309,1.759,1.759,0,0,0-1.637.914A4.718,4.718,0,0,0,58.5,10.93Zm7.547-.4a4.654,4.654,0,0,1,1.016-3.09,3.764,3.764,0,0,1,5.535,0,4.639,4.639,0,0,1,1.02,3.094v.172a4.631,4.631,0,0,1-1.016,3.094,3.781,3.781,0,0,1-5.535,0,4.623,4.623,0,0,1-1.02-3.09Zm1.539.172a4.009,4.009,0,0,0,.566,2.219,2.046,2.046,0,0,0,3.355,0,3.988,3.988,0,0,0,.57-2.219V10.7a3.976,3.976,0,0,0-.574-2.211A1.882,1.882,0,0,0,69.824,7.6a1.856,1.856,0,0,0-1.668.883A4.018,4.018,0,0,0,67.59,10.7ZM86.6,15H79.535V13.945l3.57-4.258A10.726,10.726,0,0,0,84.4,7.848a3.07,3.07,0,0,0,.34-1.379,1.841,1.841,0,0,0-.461-1.293A1.639,1.639,0,0,0,83,4.672a1.908,1.908,0,0,0-1.535.617,2.286,2.286,0,0,0-.527,1.539H79.457l-.016-.047a3.068,3.068,0,0,1,.93-2.355A3.566,3.566,0,0,1,83,3.461a3.31,3.31,0,0,1,2.4.844,2.894,2.894,0,0,1,.875,2.18,3.476,3.476,0,0,1-.5,1.758A19.611,19.611,0,0,1,84.27,10.4L81.4,13.758l.016.039H86.6ZM11.3,39H9.75V27.625H11.3Zm2.82,0V27.625H17.7a4.678,4.678,0,0,1,4.938,4.914v1.555A4.667,4.667,0,0,1,17.7,39Zm1.539-10.164V37.8H17.7a3.137,3.137,0,0,0,2.488-1.039,3.9,3.9,0,0,0,.91-2.664v-1.57a3.873,3.873,0,0,0-.91-2.648A3.137,3.137,0,0,0,17.7,28.836ZM30.867,40.2H23.656V39h7.211Zm9.75-12.578V35.18a3.669,3.669,0,0,1-1.219,2.93,4.627,4.627,0,0,1-3.141,1.055,4.367,4.367,0,0,1-3.031-1.059,3.73,3.73,0,0,1-1.18-2.926V27.625h1.539V35.18a2.744,2.744,0,0,0,.746,2.043,2.621,2.621,0,0,0,1.926.738,2.851,2.851,0,0,0,2.035-.738,2.668,2.668,0,0,0,.785-2.043V27.625Zm7.141,9.1a1.026,1.026,0,0,0-.387-.828,3.732,3.732,0,0,0-1.465-.562,6.146,6.146,0,0,1-2.293-.9,1.814,1.814,0,0,1-.8-1.547,2.229,2.229,0,0,1,.879-1.766,3.879,3.879,0,0,1,4.605.047,2.239,2.239,0,0,1,.852,1.82l-.016.047H47.664a1.331,1.331,0,0,0-.48-.992,1.717,1.717,0,0,0-1.215-.445,1.751,1.751,0,0,0-1.215.367,1.146,1.146,0,0,0-.4.875.927.927,0,0,0,.348.773,3.848,3.848,0,0,0,1.434.5,6.058,6.058,0,0,1,2.359.93,1.872,1.872,0,0,1,.8,1.57,2.226,2.226,0,0,1-.91,1.836,3.754,3.754,0,0,1-2.379.711,3.715,3.715,0,0,1-2.547-.82,2.341,2.341,0,0,1-.883-1.914l.016-.047h1.469a1.424,1.424,0,0,0,.609,1.2,2.358,2.358,0,0,0,1.336.379,2.1,2.1,0,0,0,1.285-.348A1.063,1.063,0,0,0,47.758,36.727Zm8.82,1.023A2.863,2.863,0,0,1,55.555,38.8a2.8,2.8,0,0,1-1.445.367,2.716,2.716,0,0,1-2.156-.883,4.1,4.1,0,0,1-.773-2.75V30.547h1.539v5a3.147,3.147,0,0,0,.4,1.859,1.481,1.481,0,0,0,1.242.508,2.531,2.531,0,0,0,1.355-.332,2.077,2.077,0,0,0,.809-.941V30.547h1.539V39H56.68ZM65.5,39q-.078-.383-.121-.676a4.96,4.96,0,0,1-.051-.59,3.589,3.589,0,0,1-1.121,1.02,2.867,2.867,0,0,1-1.488.41,2.763,2.763,0,0,1-2.012-.676,2.486,2.486,0,0,1-.691-1.863A2.183,2.183,0,0,1,61,34.73a4.579,4.579,0,0,1,2.66-.684h1.672v-.836a1.551,1.551,0,0,0-.453-1.176,1.779,1.779,0,0,0-1.281-.434,1.859,1.859,0,0,0-1.211.375,1.125,1.125,0,0,0-.461.9l-1.461.016-.016-.047a2.023,2.023,0,0,1,.863-1.687,3.578,3.578,0,0,1,2.371-.766,3.49,3.49,0,0,1,2.313.73,2.588,2.588,0,0,1,.875,2.105V37.3a7.923,7.923,0,0,0,.047.875,4.5,4.5,0,0,0,.172.828Zm-2.555-1.125a2.739,2.739,0,0,0,1.508-.43,2.042,2.042,0,0,0,.875-.984V35.086H63.6a2.24,2.24,0,0,0-1.488.469,1.4,1.4,0,0,0-.559,1.1,1.159,1.159,0,0,0,.352.891A1.472,1.472,0,0,0,62.945,37.875ZM73.1,31.906l-.789-.047a1.762,1.762,0,0,0-1.027.289,1.854,1.854,0,0,0-.645.813V39H69.1V30.547h1.375l.148,1.234a2.934,2.934,0,0,1,.887-1.023,2.073,2.073,0,0,1,1.215-.367,1.9,1.9,0,0,1,.328.027,2.175,2.175,0,0,1,.258.059ZM76.367,39H74.828V30.547h1.539Zm0-10.617H74.828v-1.57h1.539ZM78.375,34.7a4.654,4.654,0,0,1,1.016-3.09,3.764,3.764,0,0,1,5.535,0,4.639,4.639,0,0,1,1.02,3.094v.172a4.631,4.631,0,0,1-1.016,3.094,3.781,3.781,0,0,1-5.535,0,4.623,4.623,0,0,1-1.02-3.09Zm1.539.172a4.009,4.009,0,0,0,.566,2.219,2.046,2.046,0,0,0,3.355,0,3.988,3.988,0,0,0,.57-2.219V34.7a3.976,3.976,0,0,0-.574-2.211,1.882,1.882,0,0,0-1.684-.883,1.856,1.856,0,0,0-1.668.883,4.018,4.018,0,0,0-.566,2.211ZM89.508,39H87.969V37.422h1.539Zm0-6.844H87.969V30.578h1.539ZM100.273,39H98.727V29.047l-2.477.023V27.883l4.023-.422Z" transform="translate(836.051 2312.824)" fill="#12263f"/>
    <path id="Trazado_881600" data-name="Trazado 881600" d="M27.5,10.438V15H25.957V3.625h4.352a4.009,4.009,0,0,1,2.832.938,3.207,3.207,0,0,1,1.012,2.469,3.2,3.2,0,0,1-1.012,2.477,4.031,4.031,0,0,1-2.832.93Zm0-1.2h2.813a2.231,2.231,0,0,0,1.727-.621,2.227,2.227,0,0,0,.57-1.566,2.26,2.26,0,0,0-.574-1.578,2.21,2.21,0,0,0-1.723-.633H27.5Zm11.82,5.93A3.576,3.576,0,0,1,36.477,14a4.48,4.48,0,0,1-1.02-3.062v-.344a4.386,4.386,0,0,1,1.051-3.012,3.3,3.3,0,0,1,2.566-1.191,3.067,3.067,0,0,1,2.543,1.055,4.345,4.345,0,0,1,.848,2.8v.813H37.059l-.023.039a3.494,3.494,0,0,0,.563,2.066,1.965,1.965,0,0,0,1.719.793,3.872,3.872,0,0,0,1.371-.223,3.061,3.061,0,0,0,1.012-.613l.6,1a3.7,3.7,0,0,1-1.2.738A4.762,4.762,0,0,1,39.316,15.164ZM39.074,7.6a1.673,1.673,0,0,0-1.332.621,2.938,2.938,0,0,0-.645,1.59l.016.039h3.813V9.727A2.462,2.462,0,0,0,40.473,8.2,1.638,1.638,0,0,0,39.074,7.6ZM43.84,10.93a5.641,5.641,0,0,1,.871-3.289,2.807,2.807,0,0,1,2.441-1.25,3.027,3.027,0,0,1,1.316.273,2.7,2.7,0,0,1,.98.8V2.813h1.539V15h-1.18l-.234-1.07a2.743,2.743,0,0,1-1.023.922,3.058,3.058,0,0,1-1.414.313,2.9,2.9,0,0,1-2.422-1.121,4.659,4.659,0,0,1-.875-2.949Zm1.539.164a3.588,3.588,0,0,0,.523,2.051,1.828,1.828,0,0,0,1.625.77,2.039,2.039,0,0,0,1.156-.312,2.334,2.334,0,0,0,.766-.875V8.781a2.37,2.37,0,0,0-.77-.832,2.033,2.033,0,0,0-1.137-.309,1.759,1.759,0,0,0-1.637.914,4.718,4.718,0,0,0-.527,2.375ZM54.949,15H53.41V6.547h1.539Zm0-10.617H53.41V2.813h1.539Zm2.016,6.547a5.641,5.641,0,0,1,.871-3.289,2.807,2.807,0,0,1,2.441-1.25,3.027,3.027,0,0,1,1.316.273,2.7,2.7,0,0,1,.98.8V2.813h1.539V15h-1.18L62.7,13.93a2.743,2.743,0,0,1-1.023.922,3.058,3.058,0,0,1-1.414.313,2.9,2.9,0,0,1-2.422-1.121,4.659,4.659,0,0,1-.875-2.949Zm1.539.164a3.588,3.588,0,0,0,.523,2.051,1.828,1.828,0,0,0,1.625.77,2.039,2.039,0,0,0,1.156-.312,2.334,2.334,0,0,0,.766-.875V8.781a2.37,2.37,0,0,0-.77-.832,2.033,2.033,0,0,0-1.137-.309,1.759,1.759,0,0,0-1.637.914A4.718,4.718,0,0,0,58.5,10.93Zm7.547-.4a4.654,4.654,0,0,1,1.016-3.09,3.764,3.764,0,0,1,5.535,0,4.639,4.639,0,0,1,1.02,3.094v.172a4.631,4.631,0,0,1-1.016,3.094,3.781,3.781,0,0,1-5.535,0,4.623,4.623,0,0,1-1.02-3.09Zm1.539.172a4.009,4.009,0,0,0,.566,2.219,2.046,2.046,0,0,0,3.355,0,3.988,3.988,0,0,0,.57-2.219V10.7a3.976,3.976,0,0,0-.574-2.211A1.882,1.882,0,0,0,69.824,7.6a1.856,1.856,0,0,0-1.668.883A4.018,4.018,0,0,0,67.59,10.7Zm15.3-2.336a1.8,1.8,0,0,0,1.457-.512,2.179,2.179,0,0,0,.426-1.434A2.02,2.02,0,0,0,84.3,5.2a1.741,1.741,0,0,0-1.379-.527,2.057,2.057,0,0,0-1.473.551A1.819,1.819,0,0,0,80.871,6.6H79.4l-.023-.047a2.718,2.718,0,0,1,.969-2.187,3.709,3.709,0,0,1,2.578-.906,3.6,3.6,0,0,1,2.484.8,2.991,2.991,0,0,1,.9,2.355,2.65,2.65,0,0,1-.418,1.453,2.818,2.818,0,0,1-1.168,1.023,2.688,2.688,0,0,1,1.309,1.043,3.063,3.063,0,0,1,.449,1.691,3.122,3.122,0,0,1-.988,2.449,3.7,3.7,0,0,1-2.566.887,4.064,4.064,0,0,1-2.559-.855A2.62,2.62,0,0,1,79.3,12.047L79.316,12h1.469a1.846,1.846,0,0,0,.6,1.395,2.152,2.152,0,0,0,1.543.566,1.914,1.914,0,0,0,1.477-.582,2.147,2.147,0,0,0,.539-1.52,2.273,2.273,0,0,0-.5-1.6,2.041,2.041,0,0,0-1.559-.531H81.621v-1.2ZM11.3,39H9.75V27.625H11.3Zm2.82,0V27.625H17.7a4.678,4.678,0,0,1,4.938,4.914v1.555A4.667,4.667,0,0,1,17.7,39Zm1.539-10.164V37.8H17.7a3.137,3.137,0,0,0,2.488-1.039,3.9,3.9,0,0,0,.91-2.664v-1.57a3.873,3.873,0,0,0-.91-2.648A3.137,3.137,0,0,0,17.7,28.836ZM30.867,40.2H23.656V39h7.211Zm9.75-12.578V35.18a3.669,3.669,0,0,1-1.219,2.93,4.627,4.627,0,0,1-3.141,1.055,4.367,4.367,0,0,1-3.031-1.059,3.73,3.73,0,0,1-1.18-2.926V27.625h1.539V35.18a2.744,2.744,0,0,0,.746,2.043,2.621,2.621,0,0,0,1.926.738,2.851,2.851,0,0,0,2.035-.738,2.668,2.668,0,0,0,.785-2.043V27.625Zm7.141,9.1a1.026,1.026,0,0,0-.387-.828,3.732,3.732,0,0,0-1.465-.562,6.146,6.146,0,0,1-2.293-.9,1.814,1.814,0,0,1-.8-1.547,2.229,2.229,0,0,1,.879-1.766,3.879,3.879,0,0,1,4.605.047,2.239,2.239,0,0,1,.852,1.82l-.016.047H47.664a1.331,1.331,0,0,0-.48-.992,1.717,1.717,0,0,0-1.215-.445,1.751,1.751,0,0,0-1.215.367,1.146,1.146,0,0,0-.4.875.927.927,0,0,0,.348.773,3.848,3.848,0,0,0,1.434.5,6.058,6.058,0,0,1,2.359.93,1.872,1.872,0,0,1,.8,1.57,2.226,2.226,0,0,1-.91,1.836,3.754,3.754,0,0,1-2.379.711,3.715,3.715,0,0,1-2.547-.82,2.341,2.341,0,0,1-.883-1.914l.016-.047h1.469a1.424,1.424,0,0,0,.609,1.2,2.358,2.358,0,0,0,1.336.379,2.1,2.1,0,0,0,1.285-.348A1.063,1.063,0,0,0,47.758,36.727Zm8.82,1.023A2.863,2.863,0,0,1,55.555,38.8a2.8,2.8,0,0,1-1.445.367,2.716,2.716,0,0,1-2.156-.883,4.1,4.1,0,0,1-.773-2.75V30.547h1.539v5a3.147,3.147,0,0,0,.4,1.859,1.481,1.481,0,0,0,1.242.508,2.531,2.531,0,0,0,1.355-.332,2.077,2.077,0,0,0,.809-.941V30.547h1.539V39H56.68ZM65.5,39q-.078-.383-.121-.676a4.96,4.96,0,0,1-.051-.59,3.589,3.589,0,0,1-1.121,1.02,2.867,2.867,0,0,1-1.488.41,2.763,2.763,0,0,1-2.012-.676,2.486,2.486,0,0,1-.691-1.863A2.183,2.183,0,0,1,61,34.73a4.579,4.579,0,0,1,2.66-.684h1.672v-.836a1.551,1.551,0,0,0-.453-1.176,1.779,1.779,0,0,0-1.281-.434,1.859,1.859,0,0,0-1.211.375,1.125,1.125,0,0,0-.461.9l-1.461.016-.016-.047a2.023,2.023,0,0,1,.863-1.687,3.578,3.578,0,0,1,2.371-.766,3.49,3.49,0,0,1,2.313.73,2.588,2.588,0,0,1,.875,2.105V37.3a7.923,7.923,0,0,0,.047.875,4.5,4.5,0,0,0,.172.828Zm-2.555-1.125a2.739,2.739,0,0,0,1.508-.43,2.042,2.042,0,0,0,.875-.984V35.086H63.6a2.24,2.24,0,0,0-1.488.469,1.4,1.4,0,0,0-.559,1.1,1.159,1.159,0,0,0,.352.891A1.472,1.472,0,0,0,62.945,37.875ZM73.1,31.906l-.789-.047a1.762,1.762,0,0,0-1.027.289,1.854,1.854,0,0,0-.645.813V39H69.1V30.547h1.375l.148,1.234a2.934,2.934,0,0,1,.887-1.023,2.073,2.073,0,0,1,1.215-.367,1.9,1.9,0,0,1,.328.027,2.175,2.175,0,0,1,.258.059ZM76.367,39H74.828V30.547h1.539Zm0-10.617H74.828v-1.57h1.539ZM78.375,34.7a4.654,4.654,0,0,1,1.016-3.09,3.764,3.764,0,0,1,5.535,0,4.639,4.639,0,0,1,1.02,3.094v.172a4.631,4.631,0,0,1-1.016,3.094,3.781,3.781,0,0,1-5.535,0,4.623,4.623,0,0,1-1.02-3.09Zm1.539.172a4.009,4.009,0,0,0,.566,2.219,2.046,2.046,0,0,0,3.355,0,3.988,3.988,0,0,0,.57-2.219V34.7a3.976,3.976,0,0,0-.574-2.211,1.882,1.882,0,0,0-1.684-.883,1.856,1.856,0,0,0-1.668.883,4.018,4.018,0,0,0-.566,2.211ZM89.508,39H87.969V37.422h1.539Zm0-6.844H87.969V30.578h1.539ZM100.273,39H98.727V29.047l-2.477.023V27.883l4.023-.422Z" transform="translate(836.051 2379.824)" fill="#12263f"/>
    <path id="Línea_3791" data-name="Línea 3791" d="M32,.5H0v-1H32Z" transform="translate(783.551 2334.324)" fill="#12263f"/>
    <path id="Trazado_881601" data-name="Trazado 881601" d="M3.5,0,7,6H0Z" transform="translate(821.551 2330.824) rotate(90)" fill="#12263f"/>
    <path id="Polígono_3_-_Contorno" data-name="Polígono 3 - Contorno" d="M3.5,1.985,1.741,5H5.259L3.5,1.985M3.5,0,7,6H0Z" transform="translate(821.551 2330.824) rotate(90)" fill="#12263f"/>
  </g>
</svg>
